<svg version="1.1" id="Layer_1" xmlns="http://www.w3.org/2000/svg" xmlns:xlink="http://www.w3.org/1999/xlink" x="0px" y="0px" width="85px" height="85px" viewBox="0 0 80 80" enable-background="new 0 0 80 80" xml:space="preserve">
	<g>
		<path fill="#935d8c" d="M40,0c22.091,0,40,17.909,40,40S62.091,80,40,80S0,62.091,0,40S17.909,0,40,0z"/>
	</g>
	<g>
		<path fill="#8cc9f0" d="M50.378,32.576c0,1.005-0.815,1.821-1.821,1.821c-1.005,0-1.82-0.816-1.82-1.821
			c0-1.005,0.815-1.821,1.82-1.821C49.563,30.755,50.378,31.571,50.378,32.576z M54.627,27.113c0-0.341-0.304-0.607-0.646-0.607
			c-6.601,0-10.223,1.518-14.964,6.241c-1.081,1.1-2.2,2.352-3.338,3.699l-7.188,0.379c-0.19,0.019-0.379,0.133-0.493,0.304
			l-4.249,7.284c-0.133,0.228-0.095,0.53,0.095,0.739l1.214,1.215c0.114,0.113,0.285,0.17,0.437,0.17c0.057,0,0.114,0,0.17-0.02
			l5.235-1.611l5.33,5.33l-1.612,5.236c-0.057,0.209,0,0.437,0.152,0.606l1.214,1.214c0.133,0.114,0.284,0.171,0.436,0.171
			c0.114,0,0.208-0.021,0.304-0.075l7.283-4.25c0.171-0.113,0.284-0.304,0.305-0.492l0.379-7.19c1.347-1.138,2.599-2.257,3.699-3.339
			C52.882,37.603,54.627,33.411,54.627,27.113z"/>
		<path fill="#f4cc20" d="M41.414,22.007c-3.022-0.021-5.819,0.93-8.089,2.661c-1.22-1.453-3.078-2.43-5.173-2.431
			c-0.14,0-0.28,0.003-0.418,0.01c-2.512,0.047-4.536,2.098-4.536,4.61c0,2.555,2.081,4.636,4.636,4.636
			c0.073,0,0.143-0.004,0.216-0.008c0.403,1.757,1.753,3.193,3.515,3.637v0.001c-0.01,0.119-0.019,0.238-0.019,0.36
			c0,6.405,5.195,11.6,11.6,11.6s11.6-5.195,11.6-11.6c0-0.122-0.01-0.241-0.02-0.36c1.761-0.444,3.111-1.88,3.514-3.637
			c0.073,0.004,0.143,0.008,0.217,0.008c2.554,0,4.635-2.081,4.635-4.636c0-2.512-2.024-4.563-4.535-4.61
			c-0.138-0.007-0.278-0.01-0.418-0.01c-2.095,0.001-3.952,0.979-5.173,2.431C47.233,22.937,44.436,22.028,41.414,22.007z"/>
		<path fill="#ffede2" d="M45.673,33.195h-0.366c-0.745-0.01-1.411-0.375-1.852-0.946c-0.39-0.504-0.569-1.171-0.501-1.839
			c-1.299-0.462-2.235-1.667-2.235-3.095c0-0.914,0.336-1.746,0.885-2.393c-0.671-0.697-1.085-1.657-1.085-2.711
			c0-1.494,0.96-2.738,2.299-3.193c-0.196-0.425-0.313-0.884-0.313-1.366c0-2.213,1.797-4.01,4.01-4.01s4.01,1.797,4.01,4.01
			c0,0.482-0.116,0.941-0.313,1.366c1.34,0.455,2.299,1.699,2.299,3.193c0,1.055-0.415,2.014-1.086,2.711
			c0.55,0.647,0.885,1.479,0.885,2.393c0,1.429-0.935,2.633-2.235,3.095c0.068,0.668-0.111,1.336-0.499,1.839
			C47.084,32.82,46.418,33.186,45.673,33.195z M44.526,22.739c-0.044,0.114-0.07,0.237-0.07,0.367c0,0.552,0.447,0.999,0.999,0.999
			h1.09c0.552,0,0.999-0.447,0.999-0.999c0-0.13-0.026-0.253-0.071-0.367H44.526z M45.75,24.005c-0.828,0-1.5-0.672-1.5-1.5
			c0-0.828,0.672-1.5,1.5-1.5c0.828,0,1.5,0.672,1.5,1.5C47.25,23.333,46.578,24.005,45.75,24.005z M47.083,29.595
			c0.13-0.045,0.253-0.071,0.386-0.071c0.552,0,0.999,0.447,0.999,0.999c0,0.13-0.026,0.253-0.071,0.367h-1.09
			c-0.044-0.114-0.071-0.237-0.071-0.367C47.082,29.725,47.083,29.66,47.083,29.595z M47.083,26.178
			c0.045-0.114,0.07-0.237,0.07-0.367c0-0.552-0.447-0.999-0.999-0.999c-0.133,0-0.256,0.026-0.386,0.071v1.062
			C46.813,26.405,46.936,26.178,47.083,26.178z M42.417,29.595c0.147,0,0.27,0.227,0.27,0.462v1.062
			c-0.13,0.045-0.253,0.071-0.386,0.071c-0.552,0-0.999-0.447-0.999-0.999c0-0.13,0.026-0.253,0.071-0.367H42.417z M42.417,26.178
			v-1.062c0.114-0.045,0.237-0.071,0.367-0.071c0.552,0,0.999,0.447,0.999,0.999c0,0.133-0.026,0.256-0.071,0.386H42.417z"/>
	</g>
</svg>


